<?xml version="1.0" standalone="no"?><!DOCTYPE svg PUBLIC "-//W3C//DTD SVG 1.1//EN" "http://www.w3.org/Graphics/SVG/1.1/DTD/svg11.dtd"><svg t="1702967064531" class="icon" viewBox="0 0 1024 1024" version="1.1" xmlns="http://www.w3.org/2000/svg" p-id="11027" xmlns:xlink="http://www.w3.org/1999/xlink" width="200" height="200"><path d="M630.0544 498.8672c16.576-23.5008 26.3168-52.16 26.3168-83.1104 0-79.7312-64.64-144.3712-144.3712-144.3712-79.7568 0-144.3712 64.64-144.3712 144.3712 0 30.9504 9.7408 59.6096 26.3168 83.1104-59.3024 38.6304-98.5088 105.5104-98.5088 181.568 0 119.6032 96.9472 216.5504 216.5504 216.5504 119.6032 0 216.5504-96.9472 216.5504-216.5504 0.0256-76.0576-39.1808-142.9376-98.4832-181.568z" fill="#E6E6E6" p-id="11028"></path><path d="M512.0128 704.4864c-13.2992 0-24.064 10.7648-24.064 24.064 0 13.2736 10.7648 24.064 24.064 24.064 13.2736 0 24.064-10.7776 24.064-24.064 0-13.2992-10.7904-24.064-24.064-24.064z m0-48.1152c13.2736 0 24.064-10.7776 24.064-24.064 0-13.2992-10.7904-24.064-24.064-24.064-13.2992 0-24.064 10.7648-24.064 24.064 0 13.2736 10.7648 24.064 24.064 24.064zM463.8848 367.6288c-13.2992 0-24.064 10.7648-24.064 24.064 0 13.2736 10.7648 24.064 24.064 24.064 13.2736 0 24.064-10.7776 24.064-24.064 0-13.2992-10.7776-24.064-24.064-24.064z m96.256 0c-13.2992 0-24.064 10.7648-24.064 24.064 0 13.2736 10.7648 24.064 24.064 24.064 13.2736 0 24.064-10.7776 24.064-24.064-0.0128-13.2992-10.7904-24.064-24.064-24.064z" fill="#666666" p-id="11029"></path><path d="M511.7824 439.552c-13.1584-0.0768-23.7568 11.1616-23.68 25.088 0.0512 13.9392 10.9952 71.4112 24.1536 71.4752 13.1584 0.0768 23.5392-57.28 23.4752-71.2192-0.0512-13.9136-10.7904-25.2672-23.9488-25.344z" fill="#ED7161" p-id="11030"></path><path d="M632.32 271.3856h-48.128v-120.3072c0-13.2992-10.7904-24.064-24.064-24.064h-96.2432c-13.2992 0-24.064 10.7648-24.064 24.064v120.3072h-48.128c-13.2992 0-24.064 10.7648-24.064 24.064 0 13.2736 10.7648 24.0384 24.064 24.0384H632.32c13.2736 0 24.064-10.7648 24.064-24.0384 0-13.2992-10.7904-24.064-24.064-24.064z" fill="#666666" p-id="11031"></path><path d="M841.9712 422.6432c-9.3312-9.3312-24.4608-9.3312-33.792 0l-31.488 31.488v-14.3104c0-13.2992-10.7904-24.064-24.064-24.064-13.2992 0-24.064 10.7648-24.064 24.064v62.4384l-65.3056 65.3056c-9.3312 9.3312-9.3312 24.4608 0 33.792 9.3312 9.3312 24.4608 9.3312 33.8176 0l70.5024-70.5152c1.4336-1.1392 2.7264-2.432 3.8656-3.8656l70.5152-70.528c9.3312-9.344 9.3312-24.4864 0.0128-33.8048z m-546.5088 79.616V439.808c0-13.2992-10.7904-24.064-24.064-24.064-13.2992 0-24.064 10.7648-24.064 24.064v14.3104l-31.488-31.488c-9.3568-9.3312-24.4864-9.3312-33.8176 0-9.3312 9.3312-9.3312 24.4608 0 33.792l70.5536 70.5536a24.0512 24.0512 0 0 0 3.8272 3.8272l70.528 70.528c9.3312 9.3312 24.4608 9.3312 33.792 0 9.3312-9.3312 9.3312-24.4608 0-33.792l-65.2672-65.28z" fill="#A67C52" p-id="11032"></path></svg>